<svg width="32" height="32" viewBox="0 0 32 32" fill="none" xmlns="http://www.w3.org/2000/svg">
<path d="M28 24.6667C28 26.508 26.508 28 24.6667 28H7.33333C5.49267 28 4 26.508 4 24.6667V7.33333C4 5.492 5.49267 4 7.33333 4H24.6667C26.508 4 28 5.492 28 7.33333V24.6667Z" fill="#3F51B5"/>
<path d="M22.912 16.6667H20.6666V25.3333H17.3333V16.6667H15.3333V14H17.3333V12.3933C17.3346 10.0547 18.306 8.66666 21.0613 8.66666H23.3333V11.3333H21.8086C20.736 11.3333 20.6666 11.7333 20.6666 12.482V14H23.3333L22.912 16.6667Z" fill="white"/>
</svg>
