<svg width="36" height="36" viewBox="0 0 36 36" fill="none" xmlns="http://www.w3.org/2000/svg">
<path d="M15.12 2.16C8.36719 2.16 2.88 7.64719 2.88 14.4C2.88 21.1528 8.36719 26.64 15.12 26.64C17.7919 26.64 20.2613 25.7794 22.275 24.3225L31.7475 33.7725L33.7725 31.7475L24.4125 22.365C26.2519 20.2219 27.36 17.4403 27.36 14.4C27.36 7.64719 21.8728 2.16 15.12 2.16ZM15.12 3.6C21.0938 3.6 25.92 8.42625 25.92 14.4C25.92 20.3738 21.0938 25.2 15.12 25.2C9.14625 25.2 4.32 20.3738 4.32 14.4C4.32 8.42625 9.14625 3.6 15.12 3.6Z" fill="black"/>
</svg>
