<svg width="24" height="24" viewBox="0 0 24 24" fill="none" xmlns="http://www.w3.org/2000/svg">
<path d="M10.08 1.44C5.57811 1.44 1.91998 5.09813 1.91998 9.6C1.91998 14.1019 5.57811 17.76 10.08 17.76C11.8612 17.76 13.5075 17.1863 14.85 16.215L21.165 22.515L22.515 21.165L16.275 14.91C17.5012 13.4813 18.24 11.6269 18.24 9.6C18.24 5.09813 14.5819 1.44 10.08 1.44ZM10.08 2.4C14.0625 2.4 17.28 5.6175 17.28 9.6C17.28 13.5825 14.0625 16.8 10.08 16.8C6.09748 16.8 2.87998 13.5825 2.87998 9.6C2.87998 5.6175 6.09748 2.4 10.08 2.4Z" fill="black"/>
</svg>
