<svg width="32" height="32" viewBox="0 0 32 32" fill="none" xmlns="http://www.w3.org/2000/svg">
<path d="M22.678 27.9933L9.34468 28.006C6.41135 28.0087 4.00935 25.6113 4.00602 22.678L3.99335 9.34465C3.99068 6.41132 6.38802 4.00932 9.32135 4.00599L22.6547 3.99332C25.588 3.99065 27.99 6.38799 27.9934 9.32132L28.006 22.6547C28.0093 25.5887 25.6113 27.9907 22.678 27.9933Z" fill="url(#paint0_radial_2_11)"/>
<path d="M22.678 27.9933L9.34468 28.006C6.41135 28.0087 4.00935 25.6113 4.00602 22.678L3.99335 9.34465C3.99068 6.41132 6.38802 4.00932 9.32135 4.00599L22.6547 3.99332C25.588 3.99065 27.99 6.38799 27.9934 9.32132L28.006 22.6547C28.0093 25.5887 25.6113 27.9907 22.678 27.9933Z" fill="url(#paint1_radial_2_11)"/>
<path d="M16 20.6667C13.4273 20.6667 11.3333 18.5733 11.3333 16C11.3333 13.4267 13.4273 11.3333 16 11.3333C18.5726 11.3333 20.6666 13.4267 20.6666 16C20.6666 18.5733 18.5726 20.6667 16 20.6667ZM16 12.6667C14.162 12.6667 12.6666 14.162 12.6666 16C12.6666 17.838 14.162 19.3333 16 19.3333C17.838 19.3333 19.3333 17.838 19.3333 16C19.3333 14.162 17.838 12.6667 16 12.6667Z" fill="white"/>
<path d="M21 12C21.5523 12 22 11.5523 22 11C22 10.4477 21.5523 10 21 10C20.4477 10 20 10.4477 20 11C20 11.5523 20.4477 12 21 12Z" fill="white"/>
<path d="M20 24.6667H12C9.42731 24.6667 7.33331 22.5733 7.33331 20V12C7.33331 9.42668 9.42731 7.33334 12 7.33334H20C22.5726 7.33334 24.6666 9.42668 24.6666 12V20C24.6666 22.5733 22.5726 24.6667 20 24.6667ZM12 8.66668C10.162 8.66668 8.66665 10.162 8.66665 12V20C8.66665 21.838 10.162 23.3333 12 23.3333H20C21.838 23.3333 23.3333 21.838 23.3333 20V12C23.3333 10.162 21.838 8.66668 20 8.66668H12Z" fill="white"/>
<defs>
<radialGradient id="paint0_radial_2_11" cx="0" cy="0" r="1" gradientUnits="userSpaceOnUse" gradientTransform="translate(12.92 28.0233) scale(29.9327)">
<stop stop-color="#FFDD55"/>
<stop offset="0.328" stop-color="#FF543F"/>
<stop offset="0.348" stop-color="#FC5245"/>
<stop offset="0.504" stop-color="#E64771"/>
<stop offset="0.643" stop-color="#D53E91"/>
<stop offset="0.761" stop-color="#CC39A4"/>
<stop offset="0.841" stop-color="#C837AB"/>
</radialGradient>
<radialGradient id="paint1_radial_2_11" cx="0" cy="0" r="1" gradientUnits="userSpaceOnUse" gradientTransform="translate(7.85735 3.69352) scale(19.8753 13.2429)">
<stop stop-color="#4168C9"/>
<stop offset="0.999" stop-color="#4168C9" stop-opacity="0"/>
</radialGradient>
</defs>
</svg>
